<svg id="visual" viewBox="0 0 900 600" width="900" height="600" xmlns="http://www.w3.org/2000/svg" xmlnsXlink="http://www.w3.org/1999/xlink" version="1.1"><rect x="0" y="0" width="900" height="600" fill="#002233"></rect><path d="M0 499L21.5 498.2C43 497.3 86 495.7 128.8 498.7C171.7 501.7 214.3 509.3 257.2 493.3C300 477.3 343 437.7 385.8 434.7C428.7 431.7 471.3 465.3 514.2 478.2C557 491 600 483 642.8 464.8C685.7 446.7 728.3 418.3 771.2 411.7C814 405 857 420 878.5 427.5L900 435L900 601L878.5 601C857 601 814 601 771.2 601C728.3 601 685.7 601 642.8 601C600 601 557 601 514.2 601C471.3 601 428.7 601 385.8 601C343 601 300 601 257.2 601C214.3 601 171.7 601 128.8 601C86 601 43 601 21.5 601L0 601Z" fill="#0066FF" stroke-linecap="round" stroke-linejoin="miter"></path></svg>